<svg xmlns="http://www.w3.org/2000/svg" viewBox="0 0 100 100">
  <defs>
    <linearGradient id="fg" x1="0" y1="0" x2="1" y2="1">
      <stop offset="0%" stop-color="#FF6B35"/>
      <stop offset="100%" stop-color="#C94B15"/>
    </linearGradient>
    <linearGradient id="fa" x1="0" y1="1" x2="1" y2="0">
      <stop offset="0%" stop-color="#FFB347"/>
      <stop offset="100%" stop-color="#FF8C5A"/>
    </linearGradient>
  </defs>
  <path d="M50 5 C32 5 14 13 7 27 C0 41 0 50 0 50 C0 63 1 73 11 81 C21 89 34 93 50 93 C66 93 79 89 89 81 C99 73 100 63 100 50 C100 50 100 41 93 27 C86 13 68 5 50 5Z" fill="url(#fg)"/>
  <path d="M50 22 C43 23 30 28 24 36 L24 74 C30 68 43 64 50 64 Z" fill="white" opacity="0.16"/>
  <path d="M50 22 C57 23 70 28 76 36 L76 74 C70 68 57 64 50 64 Z" fill="white" opacity="0.10"/>
  <line x1="50" y1="22" x2="50" y2="68" stroke="white" stroke-width="1.5" opacity="0.25"/>
  <rect x="36" y="45" width="28" height="6" rx="3" fill="white" opacity="0.95"/>
  <path d="M50 32 L60 44 L50 49 L40 44 Z" fill="white" opacity="0.95"/>
  <line x1="59" y1="47" x2="59" y2="62" stroke="url(#fa)" stroke-width="2.5" stroke-linecap="round"/>
  <circle cx="59" cy="65" r="3.5" fill="url(#fa)"/>
</svg>